<?xml version="1.0" encoding="UTF-8"?> <svg xmlns="http://www.w3.org/2000/svg" width="71.531" height="70" viewBox="0 0 71.531 70"><defs><style> .cls-1 { fill: #6ba229; fill-rule: evenodd; } </style></defs><path id="Greenhouse_Effect" data-name="Greenhouse Effect" class="cls-1" d="M987.925,2644.6a9.711,9.711,0,0,0,1.178-4.64,9.476,9.476,0,1,0-9.475,9.6,9.365,9.365,0,0,0,4.285-1.03,1.074,1.074,0,0,0,.46-1.43,1.05,1.05,0,0,0-1.409-.47,7.162,7.162,0,0,1-3.336.81,7.481,7.481,0,1,1,7.38-7.48,7.553,7.553,0,0,1-.918,3.61,1.078,1.078,0,0,0,.41,1.45A1.041,1.041,0,0,0,987.925,2644.6Zm-8.3-15.72a1.057,1.057,0,0,0,1.048-1.06v-1.76a1.048,1.048,0,1,0-2.1,0v1.76A1.057,1.057,0,0,0,979.628,2628.88Zm4.784,1.21a1.06,1.06,0,0,0,.454.11,1.045,1.045,0,0,0,.945-0.6l0.752-1.59a1.061,1.061,0,0,0-.489-1.41,1.042,1.042,0,0,0-1.4.49l-0.752,1.58A1.069,1.069,0,0,0,984.412,2630.09Zm4.61,3.6a1.067,1.067,0,0,0,.652-0.23l1.355-1.09a1.082,1.082,0,0,0,.166-1.5,1.042,1.042,0,0,0-1.472-.17l-1.355,1.1a1.068,1.068,0,0,0-.166,1.49A1.049,1.049,0,0,0,989.022,2633.69Zm1.223,4.15a1.049,1.049,0,0,0,1.021.82,0.915,0.915,0,0,0,.233-0.02l1.689-.39a1.062,1.062,0,0,0,.789-1.27,1.048,1.048,0,0,0-1.254-.8l-1.687.39A1.063,1.063,0,0,0,990.245,2637.84Zm2.6,6.69a1.065,1.065,0,0,0,.234-2.1l-1.688-.39a1.045,1.045,0,0,0-1.256.79,1.064,1.064,0,0,0,.786,1.28l1.688,0.39A0.961,0.961,0,0,0,992.848,2644.53Zm-3.432,5.35a1.07,1.07,0,0,0,.654.23,1.051,1.051,0,0,0,.819-0.4,1.069,1.069,0,0,0-.164-1.49l-1.352-1.1a1.042,1.042,0,0,0-1.472.17,1.068,1.068,0,0,0,.163,1.49Zm-4.041.93a1.04,1.04,0,0,0-1.4-.49,1.059,1.059,0,0,0-.492,1.41l0.747,1.58a1.04,1.04,0,0,0,.946.61,1.066,1.066,0,0,0,.945-1.52Zm-6.232.51a1.053,1.053,0,0,0-1.048,1.06l0,1.75a1.049,1.049,0,0,0,1.046,1.06h0a1.051,1.051,0,0,0,1.048-1.05l0-1.76a1.047,1.047,0,0,0-1.046-1.06h0Zm-6.179-.74-0.755,1.58a1.065,1.065,0,0,0,.942,1.53,1.043,1.043,0,0,0,.943-0.6l0.756-1.58a1.07,1.07,0,0,0-.486-1.42A1.052,1.052,0,0,0,972.964,2650.58Zm-3.853-3.87-1.358,1.09a1.07,1.07,0,0,0-.17,1.49,1.033,1.033,0,0,0,.822.41,1.064,1.064,0,0,0,.65-0.23l1.357-1.09a1.082,1.082,0,0,0,.17-1.5A1.04,1.04,0,0,0,969.111,2646.71Zm-3.274-2.7a0.927,0.927,0,0,0,.231-0.03l1.688-.38a1.065,1.065,0,0,0,.793-1.27,1.045,1.045,0,0,0-1.252-.8l-1.689.38A1.064,1.064,0,0,0,965.837,2644.01Zm-0.112-6.28,1.686,0.4a0.982,0.982,0,0,0,.238.03,1.066,1.066,0,0,0,.236-2.1l-1.686-.4A1.062,1.062,0,0,0,965.725,2637.73Zm3.719-4.68a1.015,1.015,0,0,0,.656.23,1.037,1.037,0,0,0,.817-0.39,1.081,1.081,0,0,0-.16-1.5l-1.349-1.1a1.043,1.043,0,0,0-1.473.17,1.068,1.068,0,0,0,.16,1.49Zm4.007-3.68a1.046,1.046,0,0,0,.947.6,1.033,1.033,0,0,0,.45-0.1,1.073,1.073,0,0,0,.5-1.42l-0.744-1.58a1.033,1.033,0,0,0-1.4-.5,1.061,1.061,0,0,0-.5,1.41Zm-27.972,59.87a1.488,1.488,0,0,0,.645.14,1.471,1.471,0,0,0,1.225-.66l9.833-14.36a1.855,1.855,0,0,0,.117-1.9,1.811,1.811,0,0,0-1.6-.98h-2.169l1.969-7.13a1.521,1.521,0,0,0-.251-1.33,1.493,1.493,0,0,0-1.2-.6H947.53a1.5,1.5,0,0,0-1.454,1.13l-3.3,12.46a1.844,1.844,0,0,0,.312,1.59,1.783,1.783,0,0,0,1.437.72h2.545l-2.416,9.14A1.512,1.512,0,0,0,945.479,2689.24Zm-0.577-13.05,3.08-11.65h5.285l-1.941,7.03a1.612,1.612,0,0,0,.263,1.4,1.571,1.571,0,0,0,1.263.63h2.3l-7.59,11.09,1.738-6.58a1.522,1.522,0,0,0-.259-1.32,1.49,1.49,0,0,0-1.195-.6H944.9Zm41.4,8.86a7.428,7.428,0,0,0,1.407.13,7.811,7.811,0,0,0,5.544-2.32,7.947,7.947,0,0,0,2.065-7.5,1.275,1.275,0,0,0-.936-0.95,7.688,7.688,0,0,0-7.4,2.09,8.043,8.043,0,0,0-2.161,7.05l-1.308,1.32-1.309-1.32a8.04,8.04,0,0,0-2.16-7.05,7.687,7.687,0,0,0-7.4-2.09,1.279,1.279,0,0,0-.938.95,7.947,7.947,0,0,0,2.066,7.5,7.809,7.809,0,0,0,5.544,2.32,7.428,7.428,0,0,0,1.407-.13l1.743,1.82v6.01H968.917v-4.56a1.048,1.048,0,1,0-2.1,0v4.56H933.4v-24.63l16.709-13.69,5.24,4.29a1.035,1.035,0,0,0,1.474-.16,1.068,1.068,0,0,0-.156-1.49l-5.42-4.44a1.8,1.8,0,0,0-2.277,0l-21.2,17.37-1.56-1.96,23.121-18.94a1.235,1.235,0,0,1,1.56,0l23.121,18.94-1.56,1.96-11.968-9.81a1.052,1.052,0,0,0-1.474.16,1.079,1.079,0,0,0,.156,1.5l7.654,6.27v15.02a1.048,1.048,0,1,0,2.1,0v-13.31l2.441,2a1.759,1.759,0,0,0,1.137.41,1.791,1.791,0,0,0,1.409-.68l1.919-2.41a1.855,1.855,0,0,0-.27-2.58l-3.238-2.65,1.458-1.83a1.849,1.849,0,0,0-.27-2.58l-15.273-12.51a1.789,1.789,0,0,0-2.546.27l-1.459,1.83-2.015-1.65a3.308,3.308,0,0,0-4.2,0l-23.342,19.12a1.854,1.854,0,0,0-.27,2.58l1.918,2.41a1.791,1.791,0,0,0,2.547.27l2.441-2v22.92h-4.172a1.06,1.06,0,0,0,0,2.12H989.61a1.06,1.06,0,0,0,0-2.12h-5.055v-6.01Zm2.161-7.05a5.658,5.658,0,0,1,4.919-1.63,5.817,5.817,0,0,1-1.611,4.99,5.7,5.7,0,0,1-3.47,1.66l2.518-2.55a1.07,1.07,0,0,0,0-1.5,1.029,1.029,0,0,0-1.482,0l-2.518,2.55A5.864,5.864,0,0,1,988.459,2678Zm-10.854.89a1.047,1.047,0,0,0-1.482,0,1.068,1.068,0,0,0,0,1.5l2.594,2.63a5.7,5.7,0,0,1-3.47-1.66,5.818,5.818,0,0,1-1.612-4.99,5.661,5.661,0,0,1,4.921,1.63,5.874,5.874,0,0,1,1.643,3.52Zm-9.053-20.57,3.413,2.79-1.28,1.61-3.412-2.8Zm-6.1-5,4.473,3.66-1.279,1.6-4.474-3.66Zm-5.315-4.36,3.684,3.02-1.279,1.6-3.684-3.01Z" transform="translate(-924 -2625)"></path></svg> 