<?xml version="1.0" encoding="UTF-8"?> <svg xmlns="http://www.w3.org/2000/svg" width="69.938" height="70" viewBox="0 0 69.938 70"><defs><style> .cls-1 { fill: #6ba229; fill-rule: evenodd; } </style></defs><path id="Plantation" class="cls-1" d="M68.868,67.813H65.4a6.568,6.568,0,0,0-5.26-5.358V58.706a5.834,5.834,0,0,0,4.665-.376c3.041-1.634,4.983-6.11,5.064-6.3a1.094,1.094,0,0,0-.807-1.508c-0.2-.037-5-0.891-8.035.743A5.676,5.676,0,0,0,59.05,53.01a5.675,5.675,0,0,0-1.978-1.744c-3.04-1.634-7.833-.78-8.035-0.743a1.094,1.094,0,0,0-.807,1.508c0.083,0.189,2.024,4.666,5.065,6.3a5.837,5.837,0,0,0,4.665.376v3.713A6.57,6.57,0,0,0,52.5,67.813H41.4a6.568,6.568,0,0,0-5.328-5.37v-3.76a5.85,5.85,0,0,0,4.733-.354c3.041-1.634,4.983-6.11,5.064-6.3a1.094,1.094,0,0,0-.807-1.508c-0.2-.037-5-0.891-8.035.744A5.668,5.668,0,0,0,35,53.08a5.683,5.683,0,0,0-2.029-1.815c-3.04-1.634-7.833-.781-8.036-0.744a1.094,1.094,0,0,0-.806,1.508c0.082,0.189,2.024,4.666,5.064,6.3a5.844,5.844,0,0,0,4.7.365V62.43a6.569,6.569,0,0,0-5.4,5.383H17.505a6.57,6.57,0,0,0-5.362-5.376V58.672a5.855,5.855,0,0,0,4.766-.342c3.041-1.634,4.983-6.11,5.064-6.3a1.094,1.094,0,0,0-.806-1.508c-0.2-.037-5-0.891-8.036.743a5.676,5.676,0,0,0-2.08,1.892,5.685,5.685,0,0,0-2.081-1.892c-3.04-1.634-7.833-.78-8.035-0.743A1.094,1.094,0,0,0,.13,52.03c0.082,0.189,2.023,4.666,5.063,6.3a5.856,5.856,0,0,0,4.768.342v3.765A6.57,6.57,0,0,0,4.6,67.813H1.235a1.094,1.094,0,0,0,0,2.188H68.868A1.094,1.094,0,0,0,68.868,67.813ZM67.19,52.5c-1.67,2.982-3.857,5.339-6.966,3.9-0.012-.162-0.033-0.354-0.066-0.565C60.86,52.678,63.96,52.259,67.19,52.5Zm-9.313,3.9c-3.116,1.442-5.3-.926-6.966-3.9,3.224-.241,6.329.175,7.032,3.334C57.91,56.046,57.889,56.238,57.878,56.4ZM43.191,52.5c-1.725,3.08-3.954,5.383-7.071,3.849-0.006-.065-0.012-0.132-0.02-0.205C36.633,52.766,39.789,52.246,43.191,52.5Zm-23.9,0h0c-1.732,3.068-3.968,5.416-7.12,3.827C12.6,52.817,15.793,52.238,19.3,52.5ZM2.81,52.5h0c3.522-.264,6.695.328,7.117,3.827C6.78,57.913,4.534,55.578,2.81,52.5ZM6.827,67.813a4.365,4.365,0,0,1,8.451,0H6.827ZM33.882,56.35c-3.124,1.536-5.347-.77-7.072-3.849,3.4-.255,6.559.267,7.092,3.644C33.894,56.217,33.887,56.286,33.882,56.35ZM30.725,67.813a4.365,4.365,0,0,1,8.451,0H30.725Zm24,0a4.365,4.365,0,0,1,8.451,0H54.724ZM8.871,13.084v0.041H8.92l10.859,8.828v9.766a1.091,1.091,0,1,0,2.182,0V23.726L24.143,25.5V47.031a1.091,1.091,0,1,0,2.182,0V27.274c15.187,12.234,14.541,12.1,15.272,12.1H55.778a1.095,1.095,0,0,0,.687-1.943l-8.323-6.765V30.625h-0.05C14.173,3.167,16.151,4.375,15.416,4.375H1.235A1.1,1.1,0,0,0,.548,6.318Zm43.83,24.1H41.983L36.6,32.813H47.318Zm-8.073-6.562H33.96v0.041L28.529,26.25H39.247Zm-8.072-6.562H25.839l-5.382-4.375H31.174Zm-13.5-10.978L28.483,17.5H17.766l-5.381-4.375H23.052V13.084ZM15.029,6.563l5.382,4.375H9.694L4.312,6.563H15.029ZM57.959,19.688a7.66,7.66,0,1,0-7.636-7.656A7.637,7.637,0,0,0,57.959,19.688Zm0-13.125A5.471,5.471,0,1,1,52.5,12.031,5.453,5.453,0,0,1,57.959,6.563Zm0-4.375a1.094,1.094,0,1,0-1.091-1.094A1.093,1.093,0,0,0,57.959,2.188ZM56.868,22.969a1.091,1.091,0,1,0,1.091-1.094A1.093,1.093,0,0,0,56.868,22.969Zm12-9.844a1.094,1.094,0,1,0-1.091-1.094A1.093,1.093,0,0,0,68.868,13.125Zm-21.817,0a1.094,1.094,0,1,0-1.091-1.094A1.093,1.093,0,0,0,47.051,13.125Zm3.2-7.734A1.094,1.094,0,1,0,49.155,4.3,1.092,1.092,0,0,0,50.246,5.391ZM20.87,35a1.094,1.094,0,1,0,1.091,1.094A1.093,1.093,0,0,0,20.87,35Zm44.8-16.329a1.094,1.094,0,1,0,1.091,1.094A1.092,1.092,0,0,0,65.673,18.671Zm0-13.28A1.094,1.094,0,1,0,64.582,4.3,1.093,1.093,0,0,0,65.673,5.391ZM50.246,20.859a1.094,1.094,0,1,0-1.091-1.094A1.092,1.092,0,0,0,50.246,20.859ZM20.87,38.281a1.093,1.093,0,0,0-1.091,1.094v7.656a1.091,1.091,0,1,0,2.182,0V39.375A1.093,1.093,0,0,0,20.87,38.281Z" transform="translate(-0.031)"></path></svg> 